<mxfile host="app.diagrams.net" agent="Mozilla/5.0 (Windows NT 10.0; Win64; x64) AppleWebKit/537.36 (KHTML, like Gecko) Chrome/129.0.0.0 Safari/537.36" version="24.8.0">
  <diagram name="Page-1" id="fGo7wa4n6UTWB4w0C5It">
    <mxGraphModel dx="1050" dy="522" grid="1" gridSize="10" guides="1" tooltips="1" connect="1" arrows="1" fold="1" page="1" pageScale="1" pageWidth="827" pageHeight="1169" math="0" shadow="0">
      <root>
        <mxCell id="0" />
        <mxCell id="1" parent="0" />
        <mxCell id="DjigDo-ue7mvOKkyc46m-1" value="&lt;div&gt;&lt;br&gt;&lt;/div&gt;INPUT SEQUENCE&lt;div&gt;&lt;br&gt;&lt;/div&gt;" style="rounded=1;whiteSpace=wrap;html=1;" vertex="1" parent="1">
          <mxGeometry x="90" y="50" width="120" height="60" as="geometry" />
        </mxCell>
        <mxCell id="DjigDo-ue7mvOKkyc46m-3" value="" style="endArrow=classic;html=1;rounded=0;" edge="1" parent="1">
          <mxGeometry width="50" height="50" relative="1" as="geometry">
            <mxPoint x="149.5" y="110" as="sourcePoint" />
            <mxPoint x="149.5" y="240" as="targetPoint" />
          </mxGeometry>
        </mxCell>
        <mxCell id="DjigDo-ue7mvOKkyc46m-4" value="TOKENIZATION" style="rounded=1;whiteSpace=wrap;html=1;" vertex="1" parent="1">
          <mxGeometry x="90" y="240" width="120" height="60" as="geometry" />
        </mxCell>
        <mxCell id="DjigDo-ue7mvOKkyc46m-6" value="" style="endArrow=classic;html=1;rounded=0;" edge="1" parent="1">
          <mxGeometry width="50" height="50" relative="1" as="geometry">
            <mxPoint x="149.5" y="300" as="sourcePoint" />
            <mxPoint x="149.5" y="410" as="targetPoint" />
          </mxGeometry>
        </mxCell>
        <mxCell id="DjigDo-ue7mvOKkyc46m-7" value="HIDDEN STATES(Transformers)" style="rounded=1;whiteSpace=wrap;html=1;" vertex="1" parent="1">
          <mxGeometry x="75" y="410" width="150" height="60" as="geometry" />
        </mxCell>
        <mxCell id="DjigDo-ue7mvOKkyc46m-8" value="" style="endArrow=classic;html=1;rounded=0;" edge="1" parent="1">
          <mxGeometry width="50" height="50" relative="1" as="geometry">
            <mxPoint x="149.5" y="470" as="sourcePoint" />
            <mxPoint x="149.5" y="580" as="targetPoint" />
          </mxGeometry>
        </mxCell>
        <mxCell id="DjigDo-ue7mvOKkyc46m-9" value="Attention mechanism(BERT)" style="rounded=1;whiteSpace=wrap;html=1;" vertex="1" parent="1">
          <mxGeometry x="70" y="580" width="160" height="60" as="geometry" />
        </mxCell>
        <mxCell id="DjigDo-ue7mvOKkyc46m-10" value="" style="endArrow=classic;html=1;rounded=0;" edge="1" parent="1">
          <mxGeometry width="50" height="50" relative="1" as="geometry">
            <mxPoint x="149.5" y="640" as="sourcePoint" />
            <mxPoint x="149.5" y="740" as="targetPoint" />
          </mxGeometry>
        </mxCell>
        <mxCell id="DjigDo-ue7mvOKkyc46m-11" value="Fully Connected Layer" style="rounded=1;whiteSpace=wrap;html=1;" vertex="1" parent="1">
          <mxGeometry x="70" y="740" width="160" height="60" as="geometry" />
        </mxCell>
        <mxCell id="DjigDo-ue7mvOKkyc46m-12" value="OUTPUTS(Task Specific)" style="rounded=1;whiteSpace=wrap;html=1;" vertex="1" parent="1">
          <mxGeometry x="75" y="900" width="160" height="60" as="geometry" />
        </mxCell>
        <mxCell id="DjigDo-ue7mvOKkyc46m-13" value="" style="endArrow=classic;html=1;rounded=0;" edge="1" parent="1">
          <mxGeometry width="50" height="50" relative="1" as="geometry">
            <mxPoint x="149.5" y="800" as="sourcePoint" />
            <mxPoint x="149.5" y="900" as="targetPoint" />
          </mxGeometry>
        </mxCell>
        <mxCell id="DjigDo-ue7mvOKkyc46m-18" style="edgeStyle=orthogonalEdgeStyle;rounded=0;orthogonalLoop=1;jettySize=auto;html=1;" edge="1" parent="1" source="DjigDo-ue7mvOKkyc46m-15">
          <mxGeometry relative="1" as="geometry">
            <mxPoint x="490" y="580" as="targetPoint" />
          </mxGeometry>
        </mxCell>
        <mxCell id="DjigDo-ue7mvOKkyc46m-15" value="GRACE ADAPTER&lt;div&gt;&lt;br&gt;&lt;/div&gt;" style="rounded=0;whiteSpace=wrap;html=1;" vertex="1" parent="1">
          <mxGeometry x="430" y="410" width="120" height="60" as="geometry" />
        </mxCell>
        <mxCell id="DjigDo-ue7mvOKkyc46m-20" value="" style="shape=flexArrow;endArrow=classic;html=1;rounded=0;entryX=0;entryY=0.5;entryDx=0;entryDy=0;exitX=1;exitY=0.5;exitDx=0;exitDy=0;" edge="1" parent="1" source="DjigDo-ue7mvOKkyc46m-7" target="DjigDo-ue7mvOKkyc46m-15">
          <mxGeometry width="50" height="50" relative="1" as="geometry">
            <mxPoint x="280" y="460" as="sourcePoint" />
            <mxPoint x="330" y="410" as="targetPoint" />
            <Array as="points">
              <mxPoint x="300" y="440" />
            </Array>
          </mxGeometry>
        </mxCell>
        <mxCell id="DjigDo-ue7mvOKkyc46m-21" value="FAISS SIMILARITY SEARCH" style="rounded=0;whiteSpace=wrap;html=1;" vertex="1" parent="1">
          <mxGeometry x="430" y="580" width="120" height="60" as="geometry" />
        </mxCell>
        <mxCell id="DjigDo-ue7mvOKkyc46m-22" value="" style="shape=flexArrow;endArrow=classic;html=1;rounded=0;entryX=0;entryY=0.5;entryDx=0;entryDy=0;exitX=1;exitY=0.5;exitDx=0;exitDy=0;" edge="1" parent="1" source="DjigDo-ue7mvOKkyc46m-9" target="DjigDo-ue7mvOKkyc46m-21">
          <mxGeometry width="50" height="50" relative="1" as="geometry">
            <mxPoint x="280" y="630" as="sourcePoint" />
            <mxPoint x="330" y="580" as="targetPoint" />
          </mxGeometry>
        </mxCell>
        <mxCell id="DjigDo-ue7mvOKkyc46m-23" value="Lipschitz Continuity" style="swimlane;whiteSpace=wrap;html=1;" vertex="1" parent="1">
          <mxGeometry x="400" y="780" width="200" height="100" as="geometry" />
        </mxCell>
        <mxCell id="DjigDo-ue7mvOKkyc46m-24" value="Enforced Hidden State Update" style="text;html=1;align=center;verticalAlign=middle;resizable=0;points=[];autosize=1;strokeColor=none;fillColor=none;" vertex="1" parent="1">
          <mxGeometry x="405" y="828" width="190" height="30" as="geometry" />
        </mxCell>
        <mxCell id="DjigDo-ue7mvOKkyc46m-26" value="" style="endArrow=classic;html=1;rounded=0;entryX=0.454;entryY=0.004;entryDx=0;entryDy=0;exitX=0.5;exitY=1;exitDx=0;exitDy=0;entryPerimeter=0;" edge="1" parent="1" source="DjigDo-ue7mvOKkyc46m-21" target="DjigDo-ue7mvOKkyc46m-23">
          <mxGeometry width="50" height="50" relative="1" as="geometry">
            <mxPoint x="465" y="710" as="sourcePoint" />
            <mxPoint x="515" y="660" as="targetPoint" />
            <Array as="points">
              <mxPoint x="490" y="770" />
            </Array>
          </mxGeometry>
        </mxCell>
        <mxCell id="DjigDo-ue7mvOKkyc46m-27" value="" style="curved=1;endArrow=classic;html=1;rounded=0;exitX=0;exitY=0.75;exitDx=0;exitDy=0;" edge="1" parent="1" source="DjigDo-ue7mvOKkyc46m-23">
          <mxGeometry width="50" height="50" relative="1" as="geometry">
            <mxPoint x="385" y="860" as="sourcePoint" />
            <mxPoint x="235" y="770" as="targetPoint" />
            <Array as="points">
              <mxPoint x="340" y="780" />
              <mxPoint x="290" y="780" />
            </Array>
          </mxGeometry>
        </mxCell>
      </root>
    </mxGraphModel>
  </diagram>
</mxfile>
